<svg width="35" height="35" viewBox="0 0 35 35" fill="none" xmlns="http://www.w3.org/2000/svg">
<path d="M4.375 10.2083C4.375 6.98667 6.98667 4.375 10.2083 4.375H24.7917C28.0133 4.375 30.625 6.98667 30.625 10.2083V24.7917C30.625 28.0133 28.0133 30.625 24.7917 30.625H10.2083C6.98667 30.625 4.375 28.0133 4.375 24.7917V10.2083Z" stroke="black" stroke-width="3"/>
<path d="M13.1252 16.0417C14.736 16.0417 16.0418 14.7359 16.0418 13.125C16.0418 11.5142 14.736 10.2084 13.1252 10.2084C11.5143 10.2084 10.2085 11.5142 10.2085 13.125C10.2085 14.7359 11.5143 16.0417 13.1252 16.0417Z" stroke="black" stroke-width="3" stroke-linecap="round" stroke-linejoin="round"/>
<path d="M5.8335 29.1666L10.0245 23.9279C10.9537 22.7664 12.6167 22.5082 13.8543 23.3333C15.092 24.1584 16.755 23.9002 17.6842 22.7387L20.0163 19.8235C21.0369 18.5478 22.9061 18.359 24.1611 19.4049L30.6252 24.7916" stroke="black" stroke-width="3"/>
</svg>
