<svg width="24" height="24" viewBox="0 0 24 24" fill="none" xmlns="http://www.w3.org/2000/svg">
<rect width="24" height="24" fill="white" fill-opacity="0.01"/>
<path d="M9.86409 10.736C10.6341 9.99001 11.7571 10.2 12.5841 11.001C13.4101 11.801 13.6271 12.889 12.8571 13.635C11.0411 15.395 7.37509 15.637 8.09209 14.842C9.67909 13.082 8.67009 11.893 9.86409 10.736ZM19.9681 4.03001C20.3701 4.40801 16.8681 8.76201 15.5411 10.01C14.8821 10.63 14.5291 10.836 14.2651 11.026C14.1501 11.108 14.1151 10.999 14.0881 10.95C13.9156 10.6555 13.7036 10.386 13.4581 10.149C13.2221 9.92701 12.8511 9.70401 12.5911 9.57701C12.5381 9.55201 12.4221 9.51901 12.5111 9.41101C12.7121 9.16201 12.9321 8.83101 13.5911 8.21101C14.9181 6.96401 19.5651 3.65101 19.9681 4.03001ZM18.3801 19.946C18.2731 19.982 18.161 20.0003 18.0481 20C17.8492 20.0046 17.6539 19.9464 17.49 19.8337C17.3261 19.7209 17.2019 19.5594 17.1351 19.372C16.7921 18.415 15.9951 17.73 14.8781 17.439C12.6961 16.871 11.6581 17.175 9.82509 18.434L9.66509 18.544C9.32996 18.7815 8.97954 18.9966 8.61609 19.188C7.13909 19.943 5.98409 20.013 5.13409 19.607C4.54809 19.327 4.14509 18.813 4.03409 18.2C3.78009 16.797 4.96409 15.553 6.63609 15.044C6.75132 15.0056 6.87309 14.9907 6.99418 15.0003C7.11527 15.0099 7.23319 15.0437 7.34094 15.0998C7.44869 15.1558 7.54407 15.233 7.6214 15.3267C7.69873 15.4203 7.75644 15.5286 7.79109 15.645C7.83202 15.7634 7.84832 15.889 7.839 16.014C7.82967 16.1389 7.79491 16.2607 7.73686 16.3717C7.67881 16.4828 7.59868 16.5808 7.50139 16.6598C7.4041 16.7387 7.2917 16.797 7.17109 16.831C6.84109 16.931 6.45409 17.142 6.19309 17.364C5.99809 17.529 5.86309 17.719 5.88709 17.798C5.92909 17.936 5.97509 17.983 6.04709 18.012C6.20209 18.075 6.49209 18.041 6.86509 17.916C7.02909 17.861 7.20509 17.79 7.38909 17.706C7.58509 17.618 7.73709 17.541 7.96909 17.419C8.04509 17.379 8.14609 17.309 8.41409 17.116C9.50409 16.332 10.2161 15.918 11.2591 15.596C12.8211 15.114 14.4391 15.206 16.0611 15.868C17.4601 16.438 18.4601 17.457 18.9441 18.808C19.1181 19.291 18.8741 19.778 18.3801 19.946Z" fill="black"/>
</svg>
