<svg width="35" height="35" viewBox="0 0 35 35" fill="none" xmlns="http://www.w3.org/2000/svg">
<path d="M4.375 17.5C4.375 10.2513 10.2513 4.375 17.5 4.375C24.7487 4.375 30.625 10.2513 30.625 17.5C30.625 24.7487 24.7487 30.625 17.5 30.625C10.2513 30.625 4.375 24.7487 4.375 17.5Z" stroke="black" stroke-width="3"/>
<path d="M21.875 13.125L13.125 21.875" stroke="black" stroke-width="3" stroke-linecap="round" stroke-linejoin="round"/>
<path d="M23.3335 21.1458C23.3335 22.3539 22.3541 23.3333 21.146 23.3333C19.9379 23.3333 18.9585 22.3539 18.9585 21.1458C18.9585 19.9376 19.9379 18.9583 21.146 18.9583C22.3541 18.9583 23.3335 19.9376 23.3335 21.1458Z" fill="black"/>
<path d="M16.0417 13.8541C16.0417 15.0622 15.0624 16.0416 13.8542 16.0416C12.6461 16.0416 11.6667 15.0622 11.6667 13.8541C11.6667 12.646 12.6461 11.6666 13.8542 11.6666C15.0624 11.6666 16.0417 12.646 16.0417 13.8541Z" fill="black"/>
</svg>
