<svg width="24" height="24" viewBox="0 0 24 24" fill="none" xmlns="http://www.w3.org/2000/svg">
<rect width="24" height="24" fill="white" fill-opacity="0.01"/>
<path d="M12.0002 16.3731L15.9802 18.5661L15.2202 13.9111L18.4962 10.5641L13.9722 9.87406L12.0002 5.68706L10.0282 9.87606L5.50423 10.5651L8.78023 13.9101L8.01823 18.5651L12.0002 16.3731ZM12.0002 18.6561L8.98423 20.3181C8.65558 20.4992 8.28259 20.5842 7.90791 20.5634C7.53322 20.5425 7.17196 20.4167 6.8654 20.2003C6.55884 19.9838 6.31936 19.6855 6.17433 19.3394C6.02929 18.9933 5.98456 18.6134 6.04523 18.2431L6.64423 14.5871L4.07423 11.9631C3.81655 11.7 3.63649 11.3709 3.55389 11.0121C3.4713 10.6533 3.48937 10.2786 3.60613 9.92934C3.72288 9.58011 3.93378 9.2699 4.21559 9.03288C4.49739 8.79586 4.83916 8.64124 5.20323 8.58606L8.67323 8.05806L10.1912 4.83406C10.353 4.49102 10.6089 4.20104 10.9292 3.99794C11.2495 3.79485 11.621 3.68701 12.0002 3.68701C12.3795 3.68701 12.7509 3.79485 13.0712 3.99794C13.3915 4.20104 13.6475 4.49102 13.8092 4.83406L15.3282 8.05806L18.7982 8.58606C19.1621 8.64155 19.5037 8.79638 19.7852 9.03352C20.0668 9.27067 20.2774 9.58091 20.3939 9.93009C20.5105 10.2793 20.5284 10.6538 20.4457 11.0125C20.363 11.3712 20.1829 11.7002 19.9252 11.9631L17.3562 14.5871L17.9552 18.2431C18.0161 18.6135 17.9714 18.9936 17.8263 19.3399C17.6812 19.6861 17.4416 19.9846 17.1349 20.2011C16.8282 20.4175 16.4667 20.5433 16.0919 20.564C15.717 20.5847 15.3439 20.4995 15.0152 20.3181L12.0002 18.6561Z" fill="black"/>
</svg>
