<svg width="24" height="24" viewBox="0 0 24 24" fill="inherit" xmlns="http://www.w3.org/2000/svg">
<path d="M20.5 12.9523V19.5H17.9668V14.1572C17.9668 13.1756 17.6666 12.4008 17.1609 11.8721C16.6566 11.3449 15.9829 11.1005 15.316 11.1213C13.9633 11.1634 12.6963 12.2782 12.6963 14.1572V19.5H10.1766V9.36957H12.6956V10.3687L13.6337 10.6097C13.9345 10.0629 14.5009 9.61063 15.2231 9.32894C15.9425 9.04834 16.7802 8.95244 17.5713 9.08598C18.3596 9.21904 19.0842 9.57598 19.6116 10.1841C20.136 10.7889 20.5 11.6818 20.5 12.9523ZM7.0275 5.73913C7.0275 6.41897 6.46984 6.97826 5.77083 6.97826C5.07182 6.97826 4.51417 6.41897 4.51417 5.73913C4.51417 5.05985 5.07195 4.5 5.77083 4.5C6.46971 4.5 7.0275 5.05985 7.0275 5.73913ZM4.5 19.5V9.36957H7.04167V19.5H4.5Z" fill="inherit" stroke="inherit"/>
</svg>
