<svg width="24" height="24" viewBox="0 0 24 24" fill="inherit" xmlns="http://www.w3.org/2000/svg">
<path fill-rule="evenodd" clip-rule="evenodd" d="M6.23192 5.16527C8.87622 4.94491 14.7524 4.94491 17.3967 5.16527C20.2614 5.38563 20.6287 7.07504 20.6287 11.6291C20.6287 16.1832 20.2614 17.946 17.3967 18.093C14.7524 18.2399 8.87622 18.2399 6.23192 18.093C3.36726 17.8726 3 16.1832 3 11.6291C3 7.07504 3.36726 5.38563 6.23192 5.16527ZM11.0585 13.844C10.3936 14.1765 9.61133 13.693 9.61133 12.9496V10.3094C9.61133 9.56606 10.3936 9.08256 11.0585 9.41501L13.6987 10.7351C14.4357 11.1036 14.4357 12.1554 13.6987 12.5239L11.0585 13.844Z" fill="inherit"/>
</svg>
