<svg width="1437" height="819" fill="none" xmlns="http://www.w3.org/2000/svg"><g filter="url(#filter0_f_1478_628)"><path d="M507.941 615.228c-.572 22.369 58.114-66.752 98.147-47.225 40.032 19.526-136.336 19.62-69.193 29.722 67.143 10.103-37.1 11.747 34.522 9.021 71.623-2.727 398.338-13.079 450.303-27.716 51.96-14.636 199.08-42.911 213.87-64.524 14.78-21.614-168.03-121.054-195.41-142.359-27.37-21.305-14.01 8.312-604.051-168.567-60.307-13.815-162.463 27.936-235.375 26.267l301.578 264.326 5.609 121.055z" fill="url(#paint0_linear_1478_628)"/></g><defs><linearGradient id="paint0_linear_1478_628" x1="654.413" y1="290.628" x2="733.797" y2="621.376" gradientUnits="userSpaceOnUse"><stop offset=".035" stop-color="#ECFF00" stop-opacity=".74"/><stop offset="1" stop-color="#F4FF75" stop-opacity=".2"/></linearGradient><filter id="filter0_f_1478_628" x=".754" y=".773" width="1435.68" height="818.085" filterUnits="userSpaceOnUse" color-interpolation-filters="sRGB"><feFlood flood-opacity="0" result="BackgroundImageFix"/><feBlend in="SourceGraphic" in2="BackgroundImageFix" result="shape"/><feGaussianBlur stdDeviation="100" result="effect1_foregroundBlur_1478_628"/></filter></defs></svg>