<?xml version="1.0" encoding="utf-8"?><svg viewBox="0 0 32 32" xmlns="http://www.w3.org/2000/svg" xmlns:xlink="http://www.w3.org/1999/xlink"><style>:root>svg{display:none}:root>svg:target{display:block}</style><svg fill="inherit" viewBox="0 0 24 24" id="fb" xmlns="http://www.w3.org/2000/svg"><path d="M13.488 11.834h-.5V20.5h-2.53v-8.666H7.5V9.456h2.958V6.463c0-1.34.411-2.316 1.07-2.958.66-.643 1.623-1.005 2.831-1.005.875 0 1.657.043 2.141.082v2.079h-1.313c-.776 0-1.38.178-1.764.627-.37.432-.435 1.002-.435 1.514v2.654h3.32l-.31 2.378h-2.51z" stroke="inherit"/></svg><svg viewBox="0 0 24 24" id="globe" xmlns="http://www.w3.org/2000/svg"><path d="M12 1.999c5.524 0 10.002 4.478 10.002 10.002 0 5.523-4.478 10.001-10.002 10.001-5.524 0-10.002-4.478-10.002-10.001C1.998 6.477 6.476 1.999 12 1.999zM14.939 16.5H9.06c.652 2.414 1.785 4.002 2.939 4.002 1.154 0 2.287-1.588 2.939-4.002zm-7.43 0H4.785a8.532 8.532 0 004.094 3.411c-.522-.82-.953-1.846-1.27-3.015l-.102-.395zm11.705 0h-2.722c-.324 1.335-.792 2.5-1.373 3.411a8.528 8.528 0 003.91-3.127l.185-.283zM7.094 10H3.735l-.005.017a8.524 8.524 0 00-.233 1.984c0 1.056.193 2.067.545 3h3.173a20.3 20.3 0 01-.218-3c0-.684.033-1.354.095-2.001zm8.303 0H8.603a18.967 18.967 0 00.135 5h6.524a18.967 18.967 0 00.135-5zm4.868-.001h-3.358c.062.648.095 1.318.095 2.002a20.3 20.3 0 01-.218 3h3.173a8.483 8.483 0 00.545-3c0-.69-.083-1.36-.237-2.002zM8.88 4.089l-.023.01A8.531 8.531 0 004.25 8.5h3.048c.314-1.752.86-3.278 1.583-4.41zM12 3.5l-.116.005C10.62 3.62 9.396 5.622 8.83 8.5h6.342c-.566-2.87-1.783-4.869-3.045-4.995L12 3.5zm3.12.59l.107.175c.67 1.112 1.177 2.572 1.475 4.237h3.048a8.533 8.533 0 00-4.339-4.29l-.291-.121z" fill="#212121" fill-rule="nonzero"/></svg><svg fill="inherit" viewBox="0 0 24 24" id="google" xmlns="http://www.w3.org/2000/svg"><g clip-path="url(#cclip0_1406_1885)"><path d="M17.812 12a5.809 5.809 0 01-11.275 1.97l-3.324 2.66A9.933 9.933 0 0021.937 12"/><path d="M17.812 12a5.804 5.804 0 01-2.439 4.724l3.287 2.63A9.903 9.903 0 0021.937 12M6.188 12c0-.672.12-1.338.35-1.97L3.214 7.372a9.883 9.883 0 000 9.258l3.324-2.66A5.773 5.773 0 016.188 12z"/><path d="M12 6.188c1.23 0 2.427.393 3.418 1.121l3.045-2.842a9.911 9.911 0 00-15.25 2.904l3.324 2.66A5.817 5.817 0 0112 6.188zM21.938 11.25V12l-1.688 2.625h-7.875V10.5h8.813a.75.75 0 01.75.75z"/></g><defs><clipPath id="cclip0_1406_1885"><path fill="#fff" d="M0 0h24v24H0z"/></clipPath></defs></svg><svg fill="inherit" viewBox="0 0 24 24" id="in" xmlns="http://www.w3.org/2000/svg"><path d="M20.5 12.952V19.5h-2.533v-5.343c0-.981-.3-1.756-.806-2.285a2.43 2.43 0 00-1.845-.75c-1.353.041-2.62 1.156-2.62 3.035V19.5h-2.52V9.37h2.52v.999l.938.24c.3-.546.867-.998 1.59-1.28a4.509 4.509 0 012.347-.243c.789.133 1.513.49 2.04 1.098.525.605.889 1.498.889 2.768zM7.027 5.74c0 .68-.557 1.24-1.256 1.24-.7 0-1.257-.56-1.257-1.24 0-.68.558-1.239 1.257-1.239.699 0 1.256.56 1.256 1.24zM4.5 19.5V9.37h2.542V19.5H4.5z" stroke="inherit"/></svg><svg viewBox="0 0 32 32" id="setting" xmlns="http://www.w3.org/2000/svg"><path d="M32 17.969v-4l-4.781-1.992a10.75 10.75 0 00-.445-1.094l1.93-4.805-2.829-2.828-4.762 1.961a11.151 11.151 0 00-1.117-.461L17.969 0h-4l-1.977 4.734c-.398.141-.781.289-1.16.469l-4.754-1.91L3.25 6.121l1.938 4.711c-.188.387-.34.781-.485 1.188L0 14.031v4l4.707 1.961c.145.406.301.801.488 1.188l-1.902 4.742 2.828 2.828 4.723-1.945c.379.18.766.324 1.164.461L14.031 32h4l1.98-4.758c.379-.141.754-.289 1.113-.461l4.797 1.922 2.828-2.828-1.969-4.773c.168-.359.305-.723.438-1.094L32 17.969zM15.969 22c-3.312 0-6-2.688-6-6s2.688-6 6-6 6 2.688 6 6-2.688 6-6 6z" fill="#030104"/></svg><svg fill="inherit" viewBox="0 0 24 24" id="twit" xmlns="http://www.w3.org/2000/svg"><path d="M22 5.8a8.49 8.49 0 01-2.36.64 4.13 4.13 0 001.81-2.27 8.21 8.21 0 01-2.61 1 4.1 4.1 0 00-7 3.74 11.64 11.64 0 01-8.45-4.29 4.16 4.16 0 00-.55 2.07 4.09 4.09 0 001.82 3.41 4.05 4.05 0 01-1.86-.51v.05a4.1 4.1 0 003.3 4 3.929 3.929 0 01-1.1.17 4.896 4.896 0 01-.77-.07 4.11 4.11 0 003.83 2.84A8.22 8.22 0 012 18.28a11.57 11.57 0 006.29 1.85A11.59 11.59 0 0020 8.45v-.53a8.43 8.43 0 002-2.12z"/></svg><svg fill="inherit" viewBox="0 0 24 24" id="youtube" xmlns="http://www.w3.org/2000/svg"><path fill-rule="evenodd" clip-rule="evenodd" d="M6.232 5.165c2.644-.22 8.52-.22 11.165 0 2.864.22 3.232 1.91 3.232 6.464s-.368 6.317-3.232 6.464c-2.645.147-8.52.147-11.165 0C3.367 17.873 3 16.183 3 11.629s.367-6.243 3.232-6.464zm4.827 8.679a1 1 0 01-1.448-.894v-2.64a1 1 0 011.447-.895l2.64 1.32a1 1 0 010 1.789l-2.64 1.32z"/></svg></svg>