<svg width="35" height="35" fill="none" xmlns="http://www.w3.org/2000/svg"><path d="M4.375 10.208a5.833 5.833 0 015.833-5.833h14.584a5.833 5.833 0 015.833 5.833v14.584a5.833 5.833 0 01-5.833 5.833H10.208a5.833 5.833 0 01-5.833-5.833V10.208z" stroke="#000" stroke-width="3"/><path d="M13.125 16.042a2.917 2.917 0 100-5.834 2.917 2.917 0 000 5.834z" stroke="#000" stroke-width="3" stroke-linecap="round" stroke-linejoin="round"/><path d="M5.833 29.167l4.191-5.24a2.867 2.867 0 013.83-.594 2.868 2.868 0 003.83-.594l2.332-2.916a2.917 2.917 0 014.145-.418l6.464 5.387" stroke="#000" stroke-width="3"/></svg>