<svg width="24" height="24" fill="none" xmlns="http://www.w3.org/2000/svg"><path d="M3 7a4 4 0 014-4h10a4 4 0 014 4v10a4 4 0 01-4 4H7a4 4 0 01-4-4V7z" stroke="#000" stroke-width="2"/><path d="M11.572 7.712a.5.5 0 01.856 0l1.108 1.841a.5.5 0 00.316.23l2.094.484a.5.5 0 01.265.815l-1.41 1.623a.5.5 0 00-.12.371l.186 2.141a.5.5 0 01-.693.504l-1.979-.838a.5.5 0 00-.39 0l-1.979.838a.5.5 0 01-.693-.504l.186-2.14a.5.5 0 00-.12-.372l-1.41-1.623a.5.5 0 01.265-.815l2.094-.484a.5.5 0 00.315-.23l1.109-1.841z" stroke="#000" stroke-width="2"/></svg>