<svg width="163" height="30" viewBox="0 0 163 30" fill="none" xmlns="http://www.w3.org/2000/svg">
<path d="M20.8658 1.46648V24.8045C20.4049 23.3799 19.8602 21.9553 19.3575 20.7821L10.5586 1.46648H0V29.3296H6.11729V6.03352C6.53629 7.4581 7.08098 8.88268 7.70946 10.3073L16.4245 29.3296H26.9831V1.46648H20.8658Z" fill="black"/>
<path d="M42.023 25.7263C39.0481 25.7263 37.0789 24.4274 36.7018 20.4469H52.6654C52.7492 19.986 52.7492 19.3994 52.7492 18.7709C52.7492 12.8631 49.8163 7.7095 41.8973 7.7095C34.1459 7.7095 30.6264 12.7374 30.6264 18.8128C30.6264 24.7207 33.7269 30 41.8973 30C49.4392 30 52.1207 26.3547 52.7073 23.0028H46.7576C46.171 24.5531 44.7464 25.7263 42.023 25.7263ZM41.9811 11.8994C45.0816 11.8994 46.6319 13.4916 46.8414 16.676H36.7437C37.2465 13.1145 39.0062 11.8994 41.9811 11.8994Z" fill="black"/>
<path d="M66.8647 30C75.2445 30 78.4708 24.6369 78.4708 18.8128C78.4708 13.0726 75.2445 7.7095 66.8647 7.7095C58.5267 7.7095 55.2586 13.0307 55.2586 18.8128C55.2586 24.6788 58.5267 30 66.8647 30ZM61.5016 18.8547C61.5016 14.2039 63.0937 12.5698 66.8647 12.5698C70.6775 12.5698 72.2697 14.2039 72.2697 18.8547C72.2697 23.5056 70.6775 25.1397 66.8647 25.1397C63.0937 25.1397 61.5016 23.5056 61.5016 18.8547Z" fill="black"/>
<path d="M83.8486 29.3296H90.0497V13.0726H94.8262V8.37989H89.1698V4.48324H103.667V0H91.0134C85.8179 0 83.8486 2.43017 83.8486 6.57821V8.33799L80.1196 10.0978V13.0726H83.8486V29.3296ZM97.5078 29.3296H103.709V8.37989H97.5078V29.3296Z" fill="black"/>
<path d="M122.215 7.7095C118.402 7.7095 116.013 9.63687 114.673 12.486V8.37989H108.472V29.3296H114.673V19.8184C114.673 14.8324 116.516 12.7374 119.826 12.7374C122.382 12.7374 123.807 14.0782 123.807 17.4302V29.3296H130.008V16.4665C130.008 10.9777 127.703 7.7095 122.215 7.7095Z" fill="black"/>
<path d="M160.759 3.00431C159.808 2.97013 158.573 3.14046 157.154 3.47688C154.308 4.1515 150.616 5.51931 146.744 7.41489C142.872 9.31058 139.529 11.3905 137.252 13.2271C136.117 14.1429 135.226 15.0147 134.67 15.7881C134.392 16.1744 134.183 16.5568 134.077 16.9247C133.97 17.2959 133.961 17.6844 134.134 18.0383C134.307 18.3924 134.619 18.6237 134.977 18.7672C135.332 18.9093 135.762 18.9783 136.237 18.9956C137.188 19.0302 138.422 18.8603 139.841 18.5242C142.42 17.9132 145.694 16.7323 149.168 15.1033L148.551 16.685L149.431 17.0296L150.654 13.8955L147.524 12.6707L147.18 13.5523L148.852 14.2064C145.389 15.8361 142.144 17.0058 139.623 17.6031C138.24 17.9308 137.1 18.0798 136.271 18.0497C135.856 18.0346 135.545 17.9753 135.328 17.8883C135.114 17.8028 135.023 17.7044 134.983 17.6227C134.943 17.5409 134.922 17.4081 134.985 17.1866C135.05 16.9613 135.194 16.6786 135.437 16.3412C135.922 15.6671 136.738 14.857 137.845 13.9642C140.052 12.1835 143.331 10.1393 147.159 8.26525C150.987 6.39104 154.612 5.0521 157.372 4.39794C158.755 4.06997 159.896 3.92042 160.725 3.95021C161.141 3.96513 161.452 4.0243 161.67 4.11124C161.884 4.19669 161.976 4.29524 162.016 4.37729C162.088 4.52508 162.089 4.84726 161.711 5.43933C161.386 5.94782 160.845 6.55212 160.102 7.22546C159.204 6.19647 157.884 5.54615 156.412 5.54615C153.706 5.54615 151.512 7.74316 151.512 10.4533C151.512 13.1635 153.706 15.3605 156.412 15.3605C159.118 15.3605 161.311 13.1635 161.311 10.4533C161.311 9.55978 161.073 8.72167 160.656 7.9998C161.47 7.27053 162.107 6.57653 162.507 5.94921C162.918 5.30594 163.171 4.58535 162.864 3.95995C162.691 3.60627 162.379 3.37527 162.02 3.23207C161.665 3.09017 161.235 3.02138 160.759 3.00431Z" fill="black"/>
</svg>
